<svg xmlns="http://www.w3.org/2000/svg" xmlns:xlink="http://www.w3.org/1999/xlink" version="1.1" width="1000" height="1000" viewBox="0 0 1000 1000" xml:space="preserve">
<desc>Created with Fabric.js 3.5.0</desc>
<defs>
</defs>
<rect x="0" y="0" width="100%" height="100%" fill="#ffffff"/>
<g transform="matrix(-27.4706 0 0 -27.4706 669.8528 752.2646)" id="77308">
<path style="stroke: none; stroke-width: 1; stroke-dasharray: none; stroke-linecap: butt; stroke-dashoffset: 0; stroke-linejoin: miter; stroke-miterlimit: 4; is-custom-font: none; font-file-url: none; fill: rgb(0,0,0); fill-rule: nonzero; opacity: 1;" vector-effect="non-scaling-stroke" transform=" translate(-12, -12)" d="M 19.092 6.863 c -1.504 2.31 -1.779 4.45 -1.681 5.688 c 6.132 -0.101 5.696 6.449 1.39 6.449 c -1.83 0 -3.801 -1.338 -3.801 -4.275 c 0 -2.724 1.412 -5.845 4.092 -7.862 z m -13 0 c -1.504 2.31 -1.779 4.45 -1.681 5.688 c 6.132 -0.101 5.696 6.449 1.39 6.449 c -1.83 0 -3.801 -1.338 -3.801 -4.275 c 0 -2.724 1.412 -5.845 4.092 -7.862 z m 16.908 -3.863 c -6.108 1.206 -10 6.584 -10 11.725 c 0 3.97 2.786 6.275 5.801 6.275 c 2.615 0 5.199 -1.797 5.199 -4.979 c 0 -2.601 -1.905 -4.757 -4.396 -5.149 c 0.217 -2.004 2.165 -4.911 4.38 -5.746 l -0.984 -2.126 z m -13 0 c -6.108 1.206 -10 6.584 -10 11.725 c 0 3.97 2.786 6.275 5.801 6.275 c 2.615 0 5.199 -1.797 5.199 -4.979 c 0 -2.601 -1.905 -4.757 -4.396 -5.149 c 0.217 -2.004 2.165 -4.911 4.38 -5.746 l -0.984 -2.126 z" stroke-linecap="round"/>
</g>
<g transform="matrix(27.4367 0 0 27.4367 329.7404 247.4303)" id="234772">
<path style="stroke: none; stroke-width: 1; stroke-dasharray: none; stroke-linecap: butt; stroke-dashoffset: 0; stroke-linejoin: miter; stroke-miterlimit: 4; is-custom-font: none; font-file-url: none; fill: rgb(0,0,0); fill-rule: nonzero; opacity: 1;" vector-effect="non-scaling-stroke" transform=" translate(-12, -12)" d="M 19.092 6.863 c -1.504 2.31 -1.779 4.45 -1.681 5.688 c 6.132 -0.101 5.696 6.449 1.39 6.449 c -1.83 0 -3.801 -1.338 -3.801 -4.275 c 0 -2.724 1.412 -5.845 4.092 -7.862 z m -13 0 c -1.504 2.31 -1.779 4.45 -1.681 5.688 c 6.132 -0.101 5.696 6.449 1.39 6.449 c -1.83 0 -3.801 -1.338 -3.801 -4.275 c 0 -2.724 1.412 -5.845 4.092 -7.862 z m 16.908 -3.863 c -6.108 1.206 -10 6.584 -10 11.725 c 0 3.97 2.786 6.275 5.801 6.275 c 2.615 0 5.199 -1.797 5.199 -4.979 c 0 -2.601 -1.905 -4.757 -4.396 -5.149 c 0.217 -2.004 2.165 -4.911 4.38 -5.746 l -0.984 -2.126 z m -13 0 c -6.108 1.206 -10 6.584 -10 11.725 c 0 3.97 2.786 6.275 5.801 6.275 c 2.615 0 5.199 -1.797 5.199 -4.979 c 0 -2.601 -1.905 -4.757 -4.396 -5.149 c 0.217 -2.004 2.165 -4.911 4.38 -5.746 l -0.984 -2.126 z" stroke-linecap="round"/>
</g>
</svg>